<?xml version="1.0" encoding="UTF-8"?><svg id="Layer_2" xmlns="http://www.w3.org/2000/svg" viewBox="0 0 83.74 63.51"><defs><style>.cls-1{fill:#e6eeda;}</style></defs><g id="Layer_1-2"><path class="cls-1" d="m35.15,15.58l-3.7,16.18h-3.02l-3.3-9.12-3.3,9.12h-3.02l-3.7-16.18h4.33l1.59,7.9,2.64-7.9h2.92l2.68,7.9,1.56-7.9h4.33Z"/><path class="cls-1" d="m41.68,15.58v16.18h-4.23V15.58h4.23Z"/><path class="cls-1" d="m48.9,15.58v12.13h4.79v4.04h-9.02V15.58h4.23Z"/><path class="cls-1" d="m55.5,15.58h4.26c2.3,0,9.12,0,9.12,8s-6.47,8.18-8.9,8.18h-4.48V15.58Zm4.23,4.01v8.15h.31c2.05,0,4.48,0,4.48-4.17s-2.74-3.98-4.7-3.98h-.09Z"/><path class="cls-1" d="m12.19,34.77h4.36c2.96,0,8.34,0,8.34,6s-5.32,6.04-8.28,6.04h-.19v4.14h-4.23v-16.18Zm4.23,3.98v4.08h1.21c1.34,0,2.89,0,2.89-2.08s-1.65-1.99-2.89-1.99h-1.21Z"/><path class="cls-1" d="m30.86,34.77v16.18h-4.23v-16.18h4.23Z"/><path class="cls-1" d="m40.5,46.56l-2.61,4.39h-4.82l5.01-8.43-4.6-7.75h4.82l2.21,3.7,2.18-3.7h4.82l-4.61,7.75,5.01,8.43h-4.82l-2.58-4.39Z"/><path class="cls-1" d="m61.53,34.77v4.01h-7.22v2.15h5.41v3.79h-5.41v2.21h7.22v4.01h-11.45v-16.18h11.45Z"/><path class="cls-1" d="m68.75,34.77v12.13h4.79v4.04h-9.02v-16.18h4.23Z"/><path class="cls-1" d="m77.71,63.51H6.03c-3.32,0-6.03-2.7-6.03-6.03V6.03C0,2.7,2.7,0,6.03,0h71.69c3.32,0,6.03,2.7,6.03,6.03v51.46c0,3.32-2.7,6.03-6.03,6.03ZM6.03,4.62c-.76,0-1.41.64-1.41,1.41v51.46c0,.76.64,1.41,1.41,1.41h71.69c.76,0,1.41-.64,1.41-1.41V6.03c0-.76-.64-1.41-1.41-1.41H6.03Z"/></g></svg>